<?xml version="1.0" encoding="utf-8"?>
<!-- Generator: Adobe Illustrator 28.4.1, SVG Export Plug-In . SVG Version: 6.00 Build 0)  -->
<svg version="1.1" id="Calque_1" xmlns="http://www.w3.org/2000/svg" xmlns:xlink="http://www.w3.org/1999/xlink" x="0px" y="0px"
	 viewBox="0 0 841.89 841.89" style="enable-background:new 0 0 841.89 841.89;" xml:space="preserve">
<style type="text/css">
	.st0{fill:none;stroke:#000000;stroke-miterlimit:10;}
</style>
<g>
	<path d="M743.69,356.39c8.08,141.7-66.71,277.09-193.5,341.88c-69.08,35.76-150.45,46.68-226.44,30.71
		C163.7,695.55,49.63,548.07,66.41,384.23c15.26-155.84,150.32-277.15,308.02-266.24c40.37,2.77,80.75,14.74,115.47,34.52
		c0,0-0.43,0.9-0.43,0.9c-34.45-13.42-70.64-19.35-107-17.8c-90.99,3.49-175.44,56.56-215.24,138.71
		c-26.99,54.71-31.34,119.87-11.41,177.49c26.15,76.42,94.86,134.68,175.34,143.86c46.68,5.54,94.77-5.56,133.61-32.02
		c26.86-18.5,49.02-43.88,62.94-73.25c17.04-35.92,20.95-75.66,12.76-112.14C540.46,378.25,743.69,356.39,743.69,356.39
		L743.69,356.39z"/>
</g>
<path class="st0" d="M694.61,439.29"/>
<path class="st0" d="M542.21,224.94"/>
<g>
	<path d="M195.19,475.05c-8.06-20.69-13.34-45.13-9.83-66.72c2.46-14.07,8.32-28.09,22.72-32.81c12.99-4.11,27.48-1.04,40.04,4.07
		c0,0,45.31,47.2,45.31,47.2c1.45,3.71,2.18,6.73,3.07,10.26c3.22,13.81,3.05,31.06-8.11,40.97c-7.42,6.34-16.3,8.93-26.25,10.31
		c-13.26,1.78-28.9-0.42-42.27-4.03c-2.94-0.78-6.65-1.94-9.57-2.91c-4.42-1.47-9.19-3.29-14.42-5.61L195.19,475.05L195.19,475.05z"
		/>
</g>
</svg>
